<svg width="25" height="25" viewBox="0 0 25 25" fill="none" xmlns="http://www.w3.org/2000/svg">
<path d="M5.20845 2.5604C5.20845 2.5604 10.1949 -0.150779 14.4609 3.11665L12.0734 11.3195C12.0734 11.3195 9.39981 9.48018 7.41714 9.67881C5.43447 9.87798 2.82095 10.8267 2.82095 10.8267L5.20845 2.5604ZM0.0244141 20.5354C1.125 19.9664 2.77695 19.678 4.68018 19.5187C6.58501 19.3597 9.26562 21.104 9.26562 21.104L11.6778 12.8142C11.2961 12.5398 9.52114 11.3447 7.29956 11.1858C5.0769 11.0269 2.39946 12.2719 2.39946 12.2719L0.0244141 20.5354ZM10.552 21.8342C10.9879 22.006 12.4182 23.3664 14.7986 23.4872C17.1796 23.6053 19.8055 22.3764 19.8055 22.3764C19.8055 22.3764 22.1441 14.1928 22.1913 14.1611C22.2074 14.1525 22.1618 14.1848 22.144 14.1928C19.9177 15.0642 18.7812 15.1941 17.1394 15.2333C15.4723 15.2735 12.927 13.6173 12.927 13.6173L10.552 21.8342ZM15.7231 3.98311L13.3308 12.1382C13.3308 12.1382 15.2743 14.0425 18.0118 13.8847C20.751 13.7252 22.237 12.862 22.6005 12.7401L24.9756 4.51245C24.9756 4.51245 21.821 5.82993 19.7583 5.59107C17.6945 5.35215 16.4108 4.47539 15.7231 3.98311Z" fill="white"/>
</svg>
