<svg width="25" height="25" viewBox="0 0 25 25" fill="none" xmlns="http://www.w3.org/2000/svg">
<g clip-path="url(#clip0_19_11)">
<path d="M24.0278 3.34722C23.5339 2.95847 22.9185 2.75678 22.2903 2.77778C21.2852 2.82581 20.3076 3.12163 19.4444 3.63889V2.77778C19.498 2.1034 19.2851 1.43489 18.8515 0.915614C18.4179 0.396337 17.7981 0.0676364 17.125 0L7.875 0C7.20189 0.0676364 6.58208 0.396337 6.14848 0.915614C5.71488 1.43489 5.50203 2.1034 5.55555 2.77778V3.63889C4.69244 3.12163 3.71482 2.82581 2.70972 2.77778C2.08153 2.75678 1.46612 2.95847 0.972221 3.34722C-0.805557 4.80556 -0.0833344 8.625 2.59722 11.8889C4.01041 13.7938 6.0523 15.1371 8.36111 15.6806C8.79237 15.9369 9.25438 16.1376 9.73611 16.2778V19.4444H9.72222C9.46533 19.4433 9.21328 19.5143 8.99475 19.6493C8.77622 19.7844 8.59999 19.9781 8.48611 20.2083L7.08333 22.9861C6.97559 23.1964 6.92408 23.431 6.93381 23.667C6.94355 23.9031 7.01419 24.1326 7.13889 24.3333C7.26231 24.5361 7.43562 24.7038 7.64229 24.8205C7.84896 24.9372 8.0821 24.999 8.31944 25H16.6667C16.9034 24.9993 17.1361 24.9381 17.3425 24.8221C17.5489 24.7062 17.7223 24.5394 17.8462 24.3377C17.97 24.1359 18.0402 23.9058 18.0501 23.6692C18.06 23.4327 18.0093 23.1975 17.9028 22.9861L16.5139 20.2083C16.3998 19.9841 16.2273 19.7948 16.0147 19.6603C15.802 19.5259 15.557 19.4513 15.3056 19.4444V16.2639C15.7736 16.1286 16.2219 15.9325 16.6389 15.6806C18.9472 15.1368 20.9885 13.7936 22.4014 11.8889C25.0819 8.625 25.8042 4.80556 24.0278 3.34722ZM4.75139 10.125C3.57912 8.8797 2.88072 7.26271 2.77778 5.55556C3.82458 5.7647 4.78897 6.271 5.55555 7.01389V9.72222C5.55555 9.93056 5.56944 10.1389 5.58333 10.3472C5.59722 10.5139 5.61111 10.6667 5.63889 10.8333C5.63909 10.932 5.65312 11.0302 5.68055 11.125C5.35044 10.8112 5.04012 10.4772 4.75139 10.125ZM20.2486 10.125C19.9594 10.4773 19.6486 10.8113 19.3181 11.125L19.3597 10.8333C19.3875 10.6667 19.4014 10.5139 19.4153 10.3472C19.4292 10.1389 19.4444 9.93056 19.4444 9.72222V7.01389C20.211 6.271 21.1754 5.7647 22.2222 5.55556C22.1193 7.26271 21.4209 8.8797 20.2486 10.125Z" fill="#6C9C3C"/>
</g>
<defs>
<clipPath id="clip0_19_11">
<rect width="25" height="25" fill="white"/>
</clipPath>
</defs>
</svg>
