<svg width="51" height="51" viewBox="0 0 51 51" fill="none" xmlns="http://www.w3.org/2000/svg">
<path d="M40.0411 1H10.589C5.29316 1 1 5.29316 1 10.589V40.0411C1 45.337 5.29316 49.6301 10.589 49.6301H40.0411C45.337 49.6301 49.6301 45.337 49.6301 40.0411V10.589C49.6301 5.29316 45.337 1 40.0411 1Z" fill="#6C9C3C" stroke="#6C9C3C" stroke-width="2"/>
<path d="M25.6313 7.66431C28.8956 7.66431 31.8976 8.46692 34.6489 10.0725C37.4035 11.6802 39.5811 13.8587 41.189 16.6135C42.7937 19.3647 43.5973 22.3671 43.5981 25.6301C43.5981 29.5492 42.4571 33.0644 40.1724 36.1917C37.8915 39.3134 34.9536 41.4682 31.3501 42.6711C31.0078 42.729 30.8989 42.6563 30.8706 42.6292C30.773 42.5354 30.7242 42.4273 30.7241 42.2698V37.1965C30.7241 35.9839 30.4813 34.9553 29.9575 34.1575C30.5313 34.0701 31.0679 33.9637 31.5659 33.8323C32.3416 33.6275 33.1343 33.2975 33.9419 32.8479C34.7691 32.3876 35.4684 31.8156 36.0327 31.1301L36.0337 31.1292C36.6065 30.4323 37.0565 29.5285 37.3979 28.4368V28.4358C37.744 27.3278 37.9136 26.0699 37.9136 24.6682C37.9135 22.7168 37.3045 21.0225 36.0874 19.6086C36.6165 18.0822 36.4974 16.4109 35.7866 14.6252L35.6997 14.4065L35.4751 14.3342L35.3569 14.301C34.7574 14.154 34.0144 14.2987 33.1978 14.6067H33.1968C32.3249 14.9359 31.5574 15.3023 30.8999 15.7073L30.895 15.7102L30.1636 16.1702C28.696 15.7808 27.1851 15.5842 25.6313 15.5842C24.0788 15.5842 22.5693 15.7805 21.103 16.1692C20.8673 16.0135 20.5836 15.8328 20.2505 15.6321C19.7888 15.3538 19.0884 15.0323 18.1685 14.6692C17.2396 14.3026 16.4081 14.1334 15.7681 14.3323L15.5386 14.4036L15.4507 14.6282C14.7554 16.4136 14.6451 18.0841 15.1743 19.6086C13.9574 21.0224 13.3492 22.7165 13.3491 24.6682C13.3491 26.0695 13.5177 27.3241 13.8647 28.425C14.2059 29.5073 14.6515 30.4101 15.2134 31.1125C15.7004 31.7212 16.2948 32.2398 16.9917 32.6692L17.2964 32.8479C18.104 33.2979 18.8966 33.6275 19.6724 33.8323C20.1741 33.9645 20.7149 34.0709 21.2935 34.1584C20.9711 34.6576 20.7574 35.2451 20.6382 35.9084C20.4839 35.9703 20.3238 36.0239 20.1577 36.0686L19.9019 36.1301C19.5596 36.201 19.1383 36.2395 18.6333 36.2395C18.2191 36.2394 17.7882 36.1062 17.3345 35.8059C16.9473 35.5499 16.5975 35.1838 16.2896 34.6926L16.1606 34.4749L16.1538 34.4641C15.8134 33.8912 15.3746 33.4195 14.8384 33.0559C14.3451 32.7214 13.8834 32.4862 13.4663 32.4026L13.4536 32.3997L13.4419 32.3977L12.9614 32.3264L12.9243 32.3206H12.8872C12.7037 32.3206 12.5339 32.3298 12.3843 32.3528C12.2762 32.3694 12.1608 32.3956 12.0513 32.4407L11.9448 32.4924C11.828 32.5582 11.6844 32.6696 11.605 32.8528C11.5402 33.0021 11.5389 33.1502 11.5698 33.2795L11.6099 33.4026C11.6816 33.5699 11.7841 33.7244 11.9067 33.8674C12.0263 34.0067 12.1595 34.131 12.3071 34.2366V34.2375L12.4761 34.3577L12.5151 34.386L12.5601 34.4065C12.8116 34.5208 13.1004 34.7575 13.4165 35.1692C13.663 35.49 13.8527 35.7804 13.9907 36.0403L14.1118 36.2903L14.3472 36.8323C14.5879 37.5198 14.9947 38.0874 15.5659 38.5208C16.1215 38.9419 16.7312 39.2177 17.3911 39.3362V39.3352C17.9922 39.4441 18.5766 39.504 19.1431 39.512C19.6819 39.5197 20.1511 39.4923 20.5415 39.4241C20.5432 39.8916 20.5446 40.4093 20.5503 40.9768C20.5583 41.795 20.562 42.2231 20.562 42.2698C20.562 42.4214 20.5142 42.5278 20.4106 42.6233C20.3713 42.6594 20.2508 42.7296 19.9087 42.6711C16.3073 41.4678 13.3714 39.3124 11.0913 36.1917C8.80601 33.0644 7.66455 29.5493 7.66455 25.6301C7.66462 22.3669 8.4674 19.3645 10.0728 16.6135C11.6807 13.8585 13.8588 11.6802 16.6138 10.0725C19.3645 8.46718 22.3675 7.66431 25.6313 7.66431Z" fill="#05120B" stroke="#05120B"/>
</svg>
