<svg width="50" height="50" viewBox="0 0 50 50" fill="none" xmlns="http://www.w3.org/2000/svg">
<g clip-path="url(#clip0_1_200)">
<path d="M39.7262 0.685059H10.2741C4.97822 0.685059 0.685059 4.97822 0.685059 10.2741V39.7262C0.685059 45.022 4.97822 49.3152 10.2741 49.3152H39.7262C45.022 49.3152 49.3152 45.022 49.3152 39.7262V10.2741C49.3152 4.97822 45.022 0.685059 39.7262 0.685059Z" fill="#05120B" stroke="#05120B" stroke-width="2"/>
<path d="M41.3063 16.047C39.6549 13.2176 37.4149 10.9775 34.5858 9.32632C31.7562 7.67504 28.6671 6.84961 25.3164 6.84961C21.9661 6.84961 18.876 7.67529 16.047 9.32632C13.2176 10.9774 10.9777 13.2176 9.32632 16.047C7.67521 18.8763 6.84961 21.966 6.84961 25.3159C6.84961 29.3399 8.02362 32.9583 10.3722 36.1722C12.7206 39.3863 15.7543 41.6104 19.4732 42.8446C19.9061 42.925 20.2265 42.8685 20.4349 42.6765C20.6433 42.4843 20.7474 42.2436 20.7474 41.9554C20.7474 41.9073 20.7433 41.4747 20.7353 40.657C20.727 39.8394 20.7232 39.126 20.7232 38.5174L20.1701 38.613C19.8175 38.6776 19.3726 38.705 18.8356 38.6973C18.2988 38.6898 17.7415 38.6335 17.1645 38.5289C16.5873 38.4252 16.0504 38.1848 15.5534 37.8081C15.0567 37.4314 14.704 36.9383 14.4956 36.3295L14.2552 35.7762C14.0949 35.4078 13.8426 34.9986 13.4979 34.5501C13.1531 34.1011 12.8046 33.7967 12.4519 33.6365L12.2836 33.5159C12.1714 33.4358 12.0673 33.3393 11.971 33.2272C11.8749 33.1151 11.8029 33.0029 11.7548 32.8905C11.7066 32.7781 11.7465 32.6859 11.875 32.6135C12.0034 32.5412 12.2355 32.5061 12.5723 32.5061L13.053 32.5779C13.3736 32.6422 13.7702 32.8341 14.2433 33.1549C14.7161 33.4754 15.1048 33.8921 15.4094 34.4049C15.7782 35.0623 16.2227 35.5632 16.7439 35.9079C17.2647 36.2526 17.7898 36.4247 18.3187 36.4247C18.8476 36.4247 19.3044 36.3846 19.6893 36.3049C20.0738 36.2247 20.4345 36.1042 20.7713 35.944C20.9155 34.8695 21.3083 34.0441 21.9493 33.4671C21.0357 33.3711 20.2143 33.2265 19.4847 33.0342C18.7556 32.8417 18.0021 32.5292 17.2247 32.096C16.4469 31.6634 15.8017 31.1261 15.2889 30.4852C14.776 29.844 14.3551 29.0021 14.0267 27.9604C13.6982 26.9183 13.5339 25.7162 13.5339 24.3537C13.5339 22.4137 14.1672 20.7628 15.4336 19.4002C14.8404 17.9417 14.8964 16.3066 15.6018 14.4953C16.0667 14.3508 16.7561 14.4592 17.6697 14.8198C18.5835 15.1805 19.2525 15.4895 19.6775 15.7457C20.1025 16.0018 20.443 16.2188 20.6995 16.3948C22.1906 15.9782 23.7294 15.7698 25.3162 15.7698C26.9031 15.7698 28.4422 15.9782 29.9334 16.3948L30.847 15.818C31.4719 15.4331 32.2097 15.0804 33.0588 14.7598C33.9084 14.4393 34.5581 14.3511 35.0071 14.4955C35.7282 16.307 35.7925 17.9419 35.1991 19.4004C36.4654 20.7631 37.099 22.4144 37.099 24.3539C37.099 25.7164 36.9341 26.9224 36.606 27.9725C36.2776 29.0228 35.853 29.8638 35.3322 30.4973C34.8108 31.1307 34.1615 31.6637 33.3841 32.0963C32.6066 32.5291 31.8529 32.8416 31.1237 33.0341C30.3942 33.2267 29.5728 33.3713 28.6592 33.4675C29.4925 34.1886 29.9092 35.3268 29.9092 36.8817V41.9548C29.9092 42.243 30.0094 42.4836 30.21 42.6758C30.4104 42.8678 30.7268 42.9243 31.1597 42.8439C34.879 41.6098 37.9128 39.3857 40.261 36.1715C42.6091 32.9577 43.7835 29.3392 43.7835 25.3152C43.7827 21.9657 42.9566 18.8763 41.3063 16.047Z" fill="#C6BEBE"/>
</g>
<defs>
<clipPath id="clip0_1_200">
<rect width="50" height="50" fill="white"/>
</clipPath>
</defs>
</svg>
