<svg width="51" height="46" viewBox="0 0 51 46" fill="none" xmlns="http://www.w3.org/2000/svg">
<path d="M25.5021 0.5C18.5033 0.5 8.95649 0.604029 7.01955 0.767662C4.84586 2.00719 0.543043 6.69957 0.5 7.91864V9.96405C0.5 12.5474 3.04581 14.8179 5.35078 14.8179C8.112 14.8179 10.4159 12.6293 10.4159 10.0479C10.4159 12.6293 12.6548 14.8179 15.4138 14.8179C18.1966 14.8179 20.3487 12.6313 20.3487 10.0479C20.3487 12.6293 22.6941 14.8179 25.4769 14.8179H25.5231C28.3059 14.8179 30.6513 12.6313 30.6513 10.0479C30.6513 12.6293 32.8249 14.8179 35.5862 14.8179C38.3474 14.8179 40.5883 12.6313 40.5883 10.0479C40.5883 12.6293 42.8922 14.8179 45.6534 14.8179C47.9584 14.8179 50.5 12.5474 50.5 9.96405V7.91864C50.457 6.69957 46.1541 2.00719 43.9805 0.767662C37.2184 0.540621 32.5009 0.5 25.5021 0.5ZM20.231 14.2906C17.9648 17.9928 12.2713 18.0372 10.0502 14.3146C8.69437 16.5482 5.62535 17.4106 4.31253 16.9872C3.92944 20.8714 3.66513 40.8126 6.44788 44.1569C14.6196 45.9671 36.617 45.9282 44.5563 44.1569C47.7738 41.0397 47.0532 20.5892 46.6917 16.9872C45.3789 17.4106 42.3093 16.5482 40.975 14.3146C38.7303 18.0372 33.0373 17.9928 30.7732 14.2906C30.0738 15.4974 28.4441 17.0871 25.5021 17.0871C23.3435 17.1668 21.3092 16.0599 20.231 14.2906ZM15.645 18.9088C17.3668 18.9088 18.9382 18.9097 20.8321 20.9142C23.9527 20.6074 27.0515 20.6074 30.1721 20.9142C32.0876 18.9302 33.6375 18.9287 35.3592 18.9287C40.9118 18.9287 42.248 26.7215 44.2495 33.4304C46.0573 39.669 43.6428 39.8343 40.6513 39.8343C36.1963 39.6707 33.724 36.6029 33.724 33.5143C29.5704 34.1689 22.9404 34.4143 17.2802 33.5143C17.2802 36.6029 14.8079 39.6707 10.3529 39.8343C7.36137 39.8343 4.94691 39.669 6.75473 33.4304C8.75624 26.6806 10.0924 18.9287 15.645 18.9287V18.9088ZM25.5021 24.7933C25.5021 24.7933 21.8563 27.9891 21.1978 29.1039L23.5811 29.02V30.9975C23.5811 31.1161 25.3428 31.0135 25.5021 31.0135C26.4641 31.0483 27.4231 31.0814 27.4231 30.9975V29.02L29.8064 29.1039C29.1479 27.9871 25.5021 24.7933 25.5021 24.7933Z" fill="#6C9C3C" stroke="#6C9C3C"/>
</svg>
