<svg width="50" height="50" viewBox="0 0 50 50" fill="none" xmlns="http://www.w3.org/2000/svg">
<path fill-rule="evenodd" clip-rule="evenodd" d="M10 0C4.47715 0 0 4.47715 0 10V40C0 45.5228 4.47715 50 10 50H40C45.5228 50 50 45.5228 50 40V10C50 4.47715 45.5228 0 40 0H10ZM5 10C5 7.23857 7.23857 5 10 5H40C42.7615 5 45 7.23857 45 10V40C45 42.7615 42.7615 45 40 45H10C7.23857 45 5 42.7615 5 40V10ZM17.5 22.5C17.5 21.1192 16.3807 20 15 20C13.6193 20 12.5 21.1192 12.5 22.5V37.5C12.5 38.8807 13.6193 40 15 40C16.3807 40 17.5 38.8807 17.5 37.5V22.5ZM18.75 13.75C18.75 15.8211 17.0711 17.5 15 17.5C12.9289 17.5 11.25 15.8211 11.25 13.75C11.25 11.6789 12.9289 10 15 10C17.0711 10 18.75 11.6789 18.75 13.75ZM25 20C25.8487 20 26.5988 20.423 27.0508 21.0698C28.3323 20.3755 29.759 20 31.25 20C36.6485 20 40 24.8145 40 28.9285V28.9475V28.9663V28.9853V29.0042V29.0232V29.0425V29.0615V29.0808V29.1V29.1193V29.1388V29.158V29.1775V29.197V29.2165V29.236V29.2555V29.2752V29.295V29.3145V29.3345V29.3542V29.374V29.394V29.4137V29.4338V29.4538V29.474V29.494V29.5143V29.5342V29.5545V29.5747V29.595V29.6155V29.6357V29.6562V29.6765V29.697V29.7175V29.7383V29.7587V29.7793V29.8V29.8207V29.8412V29.862V29.883V29.9038V29.9245V29.9455V29.9665V29.9872V30.0082V30.0292V30.0502V30.0715V30.0925V30.1138V30.1348V30.156V30.1772V30.1985V30.2197V30.241V30.2623V30.2837V30.305V30.3265V30.348V30.3695V30.3907V30.4125V30.434V30.4555V30.477V30.4988V30.5203V30.542V30.5635V30.5853V30.607V30.6287V30.6505V30.6722V30.694V30.716V30.7378V30.7598V30.7815V30.8035V30.8253V30.8472V30.8693V30.8912V30.9132V30.9352V30.9573V30.9792V31.0013V31.0233V31.0455V31.0675V31.0897V31.1118V31.134V31.156V31.1782V31.2005V31.2228V31.2448V31.267V31.2893V31.3115V31.3337V31.356V31.3783V31.4005V31.423V31.4453V31.4675V31.4897V31.5123V31.5345V31.5567V31.5792V31.6015V31.624V31.6462V31.6685V31.691V31.7135V31.7357V31.7583V31.7805V31.803V31.8255V31.8478V31.8703V31.8925V31.915V31.9375V31.9598V31.9823V32.0047V32.027V32.0495V32.072V32.0945V32.1167V32.1392V32.1618V32.184V32.2065V32.229V32.2513V32.2738V32.296V32.3185V32.3408V32.3633V32.3857V32.408V32.4305V32.4528V32.475V32.4975V32.5198V32.5423V32.5645V32.5868V32.609V32.6315V32.6537V32.676V32.6982V32.7205V32.7428V32.765V32.7873V32.8095V32.8317V32.854V32.876V32.8983V32.9205V32.9425V32.9647V32.9868V33.009V33.031V33.0532V33.0752V33.0973V33.1192V33.1413V33.1632V33.1852V33.2072V33.2293V33.2513V33.273V33.295V33.3167V33.3387V33.3605V33.3822V33.404V33.4258V33.4475V33.4692V33.491V33.5127V33.5345V33.556V33.5778V33.5993V33.6208V33.6425V33.664V33.6855V33.7067V33.7282V33.7497V33.7713V33.7925V33.8138V33.8353V33.8565V33.8778V33.899V33.9202V33.9412V33.9625V33.9835V34.0047V34.0257V34.0467V34.0677V34.0887V34.1097V34.1305V34.1515V34.1722V34.193V34.2137V34.2345V34.2552V34.276V34.2965V34.3172V34.3377V34.3582V34.3787V34.3993V34.4198V34.44V34.4605V34.4808V34.501V34.5213V34.5415V34.5615V34.5817V34.6017V34.6217V34.6418V34.6618V34.6817V34.7015V34.7213V34.7412V34.761V34.7805V34.8003V34.82V34.8395V34.859V34.8785V34.898V34.9173V34.9367V34.956V34.9753V34.9945V35.0138V35.0327V35.052V35.071V35.09V35.1088V35.1278V35.1465V35.1652V35.184V35.2028V35.2215V35.24V35.2585V35.277V35.2955V35.3138V35.3323V35.3505V35.3687V35.3867V35.405V35.423V35.441V35.459V35.477V35.4948V35.5125V35.5302V35.548V35.5655V35.583V35.6005V35.618V35.6355V35.6528V35.67V35.6873V35.7045V35.7215V35.7385V35.7555V35.7725V35.7893V35.806V35.8228V35.8395V35.8563V35.8727V35.8892V35.9055V35.922V35.9382V35.9545V35.9705V35.9867V36.0028V36.0187V36.0345V36.0505V36.0662V36.082V36.0975V36.113V36.1285V36.144V36.1595V36.1748V36.19V36.205V36.2202V36.2353V36.25V36.265V36.2798V36.2945V36.3092V36.3237V36.3382V36.3527V36.367V36.3812V36.3955V36.4098V36.4238V36.4378V36.4518V36.4655V36.4792V36.493V36.5065V36.5203V36.5335V36.547V36.5602V36.5735V36.5868V36.5998V36.6127V36.6257V36.6385V36.6512V36.664V36.6765V36.689V36.7015V36.7137V36.726V36.7382V36.7503V36.7623V36.7743V36.786V36.7978V36.8095V36.821V36.8325V36.844V36.8552V36.8665V36.8778V36.8888V36.8997V36.9107V36.9215V36.9323V36.9427V36.9532V36.9637V36.9743V36.9845V36.9945V37.0048V37.0148V37.0245V37.0345V37.0443V37.0538V37.0633V37.0728V37.082V37.0913V37.1005V37.1095V37.1185V37.1275V37.1362V37.145V37.1535V37.162V37.1705V37.1787V37.187V37.195V37.203V37.211V37.2188V37.2265V37.234V37.2415V37.249V37.2562V37.2635V37.2708V37.2778V37.2845V37.2913V37.298V37.3047V37.3112V37.3175V37.3238V37.33V37.336V37.342V37.348V37.3537V37.3595V37.365V37.3702V37.3758V37.381V37.386V37.391V37.396V37.4007V37.4055V37.41V37.4145V37.419V37.4232V37.4272V37.4313V37.4352V37.439V37.4427V37.4463V37.4498V37.4533V37.4565V37.4595V37.4625V37.4655V37.4683V37.471V37.4735V37.4783V37.4825V37.4865V37.4897V37.4928V37.496V37.499C40 38.8797 38.8807 40 37.5 40C36.1193 40 35 38.8807 35 37.5V37.497V37.494V37.4912V37.4883V37.4845V37.4805V37.476V37.471V37.4683V37.4655V37.4625V37.4595V37.4565V37.4533V37.4498V37.4463V37.4427V37.439V37.4352V37.4313V37.4272V37.4232V37.419V37.4145V37.41V37.4055V37.4007V37.396V37.391V37.386V37.381V37.3758V37.3702V37.365V37.3595V37.3537V37.348V37.342V37.336V37.33V37.3238V37.3175V37.3112V37.3047V37.298V37.2913V37.2845V37.2778V37.2708V37.2635V37.2562V37.249V37.2415V37.234V37.2265V37.2188V37.211V37.203V37.195V37.187V37.1787V37.1705V37.162V37.1535V37.145V37.1362V37.1275V37.1185V37.1095V37.1005V37.0913V37.082V37.0728V37.0633V37.0538V37.0443V37.0345V37.0245V37.0148V37.0048V36.9945V36.9845V36.9743V36.9637V36.9532V36.9427V36.9323V36.9215V36.9107V36.8997V36.8888V36.8778V36.8665V36.8552V36.844V36.8325V36.821V36.8095V36.7978V36.786V36.7743V36.7623V36.7503V36.7382V36.726V36.7137V36.7015V36.689V36.6765V36.664V36.6512V36.6385V36.6257V36.6127V36.5998V36.5868V36.5735V36.5602V36.547V36.5335V36.5203V36.5065V36.493V36.4792V36.4655V36.4518V36.4378V36.4238V36.4098V36.3955V36.3812V36.367V36.3527V36.3382V36.3237V36.3092V36.2945V36.2798V36.265V36.25V36.2353V36.2202V36.205V36.19V36.1748V36.1595V36.144V36.1285V36.113V36.0975V36.082V36.0662V36.0505V36.0345V36.0187V36.0028V35.9867V35.9705V35.9545V35.9382V35.922V35.9055V35.8892V35.8727V35.8563V35.8395V35.8228V35.806V35.7893V35.7725V35.7555V35.7385V35.7215V35.7045V35.6873V35.67V35.6528V35.6355V35.618V35.6005V35.583V35.5655V35.548V35.5302V35.5125V35.4948V35.477V35.459V35.441V35.423V35.405V35.3867V35.3687V35.3505V35.3323V35.3138V35.2955V35.277V35.2585V35.24V35.2215V35.2028V35.184V35.1652V35.1465V35.1278V35.1088V35.09V35.071V35.052V35.0327V35.0138V34.9945V34.9753V34.956V34.9367V34.9173V34.898V34.8785V34.859V34.8395V34.82V34.8003V34.7805V34.761V34.7412V34.7213V34.7015V34.6817V34.6618V34.6418V34.6217V34.6017V34.5817V34.5615V34.5415V34.5213V34.501V34.4808V34.4605V34.44V34.4198V34.3993V34.3787V34.3582V34.3377V34.3172V34.2965V34.276V34.2552V34.2345V34.2137V34.193V34.1722V34.1515V34.1305V34.1097V34.0887V34.0677V34.0467V34.0257V34.0047V33.9835V33.9625V33.9412V33.9202V33.899V33.8778V33.8565V33.8353V33.8138V33.7925V33.7713V33.7497V33.7282V33.7067V33.6855V33.664V33.6425V33.6208V33.5993V33.5778V33.556V33.5345V33.5127V33.491V33.4692V33.4475V33.4258V33.404V33.3822V33.3605V33.3387V33.3167V33.295V33.273V33.2513V33.2293V33.2072V33.1852V33.1632V33.1413V33.1192V33.0973V33.0752V33.0532V33.031V33.009V32.9868V32.9647V32.9425V32.9205V32.8983V32.876V32.854V32.8317V32.8095V32.7873V32.765V32.7428V32.7205V32.6982V32.676V32.6537V32.6315V32.609V32.5868V32.5645V32.5423V32.5198V32.4975V32.475V32.4528V32.4305V32.408V32.3857V32.3633V32.3408V32.3185V32.296V32.2738V32.2513V32.229V32.2065V32.184V32.1618V32.1392V32.1167V32.0945V32.072V32.0495V32.027V32.0047V31.9823V31.9598V31.9375V31.915V31.8925V31.8703V31.8478V31.8255V31.803V31.7805V31.7583V31.7357V31.7135V31.691V31.6685V31.6462V31.624V31.6015V31.5792V31.5567V31.5345V31.5123V31.4897V31.4675V31.4453V31.423V31.4005V31.3783V31.356V31.3337V31.3115V31.2893V31.267V31.2448V31.2228V31.2005V31.1782V31.156V31.134V31.1118V31.0897V31.0675V31.0455V31.0233V31.0013V30.9792V30.9573V30.9352V30.9132V30.8912V30.8693V30.8472V30.8253V30.8035V30.7815V30.7598V30.7378V30.716V30.694V30.6722V30.6505V30.6287V30.607V30.5853V30.5635V30.542V30.5203V30.4988V30.477V30.4555V30.434V30.4125V30.3907V30.3695V30.348V30.3265V30.305V30.2837V30.2623V30.241V30.2197V30.1985V30.1772V30.156V30.1348V30.1138V30.0925V30.0715V30.0502V30.0292V30.0082V29.9872V29.9665V29.9455V29.9245V29.9038V29.883V29.862V29.8412V29.8207V29.8V29.7793V29.7587V29.7383V29.7175V29.697V29.6765V29.6562V29.6357V29.6155V29.595V29.5747V29.5545V29.5342V29.5143V29.494V29.474V29.4538V29.4338V29.4137V29.394V29.374V29.3542V29.3345V29.3145V29.295V29.2752V29.2555V29.236V29.2165V29.197V29.1775V29.158V29.1388V29.1193V29.1V29.0808V29.0615V29.0425V29.0232V29.0042V28.9853V28.9663V28.9475V28.9285C35 27.008 33.3515 25 31.25 25C29.9398 25 28.4935 25.7123 27.5 27.4078V27.4145V27.4403V27.466V27.4918V27.5177V27.5435V27.5695V27.5955V27.6217V27.6478V27.6737V27.7V27.7262V27.7525V27.7787V27.805V27.8315V27.858V27.8843V27.9107V27.9373V27.9638V27.9905V28.017V28.0437V28.0705V28.097V28.124V28.1507V28.1775V28.2043V28.2312V28.2582V28.285V28.312V28.339V28.366V28.3932V28.4202V28.4475V28.4745V28.5017V28.529V28.5562V28.5835V28.6107V28.638V28.6655V28.6928V28.7202V28.7475V28.775V28.8025V28.83V28.8575V28.885V28.9125V28.9403V28.9678V28.9952V29.023V29.0508V29.0783V29.106V29.1337V29.1615V29.1893V29.217V29.2447V29.2725V29.3005V29.3283V29.356V29.384V29.4118V29.4398V29.4678V29.4955V29.5235V29.5515V29.5795V29.6073V29.6353V29.6632V29.6912V29.7195V29.7475V29.7755V29.8035V29.8315V29.8595V29.8878V29.9158V29.9438V29.972V30V30.0282V30.0562V30.0845V30.1125V30.1405V30.1688V30.197V30.225V30.2533V30.2812V30.3095V30.3375V30.3658V30.394V30.422V30.4503V30.4783V30.5065V30.5347V30.5627V30.591V30.619V30.6472V30.6752V30.7035V30.7315V30.7598V30.7878V30.816V30.844V30.8722V30.9002V30.9285V30.9565V30.9845V31.0125V31.0407V31.0687V31.0967V31.1247V31.1527V31.1807V31.2087V31.2368V31.2648V31.2928V31.3208V31.3488V31.3765V31.4045V31.4325V31.4602V31.4882V31.516V31.544V31.5718V31.5995V31.6273V31.655V31.683V31.7108V31.7383V31.766V31.7937V31.8215V31.849V31.8768V31.9042V31.932V31.9595V31.987V32.0145V32.042V32.0695V32.097V32.1245V32.1517V32.1793V32.2065V32.234V32.2612V32.2885V32.3158V32.343V32.3703V32.3973V32.4245V32.4515V32.4787V32.5058V32.5327V32.5597V32.5868V32.6138V32.6405V32.6675V32.6942V32.721V32.7477V32.7745V32.8013V32.828V32.8548V32.8812V32.9077V32.9342V32.9608V32.9872V33.0137V33.0402V33.0665V33.0928V33.119V33.1452V33.1715V33.1978V33.2238V33.2497V33.276V33.302V33.3278V33.3538V33.3797V33.4055V33.4313V33.457V33.4827V33.5083V33.534V33.5595V33.585V33.6105V33.636V33.6613V33.6867V33.712V33.7373V33.7622V33.7875V33.8125V33.8375V33.8625V33.8875V33.9125V33.9372V33.962V33.9867V34.0115V34.036V34.0607V34.0853V34.1097V34.134V34.1585V34.1828V34.207V34.2313V34.2552V34.2795V34.3035V34.3275V34.3512V34.3753V34.399V34.4228V34.4465V34.47V34.4935V34.517V34.5405V34.564V34.5872V34.6105V34.6335V34.6567V34.6797V34.7028V34.7257V34.7485V34.7715V34.7943V34.8167V34.8395V34.862V34.8845V34.9067V34.9292V34.9515V34.9738V34.9958V35.0177V35.0397V35.0618V35.0835V35.1053V35.127V35.1488V35.1702V35.1917V35.2132V35.2345V35.2558V35.277V35.2983V35.3193V35.3403V35.361V35.3818V35.4025V35.4232V35.444V35.4645V35.4847V35.5053V35.5255V35.5457V35.5658V35.5858V35.6058V35.6257V35.6455V35.6652V35.6847V35.7043V35.7237V35.7433V35.7625V35.7817V35.8007V35.82V35.839V35.8577V35.8765V35.8953V35.914V35.9325V35.9508V35.9692V35.9875V36.0057V36.0238V36.0418V36.0598V36.0775V36.0953V36.1128V36.1305V36.1478V36.1653V36.1825V36.1998V36.2168V36.2337V36.2505V36.2675V36.2843V36.3008V36.3172V36.3338V36.35V36.3662V36.3823V36.3982V36.4143V36.4302V36.4458V36.4615V36.477V36.4925V36.5078V36.523V36.5382V36.5532V36.568V36.583V36.5977V36.6122V36.6267V36.6413V36.6555V36.6698V36.6838V36.6978V36.7118V36.7255V36.739V36.7527V36.766V36.7795V36.7928V36.8057V36.8188V36.8317V36.8445V36.8573V36.8698V36.8822V36.8945V36.9067V36.919V36.931V36.943V36.9548V36.9663V36.978V36.9893V37.0008V37.012V37.023V37.034V37.0448V37.0555V37.0662V37.0768V37.087V37.0975V37.1075V37.1175V37.1275V37.1373V37.147V37.1565V37.166V37.1753V37.1845V37.1935V37.2025V37.2113V37.22V37.2285V37.237V37.2453V37.2535V37.2615V37.2695V37.2773V37.285V37.2925V37.3V37.3072V37.3145V37.3215V37.3282V37.3352V37.3418V37.3483V37.3548V37.361V37.367V37.373V37.379V37.3848V37.3903V37.3957V37.401V37.4062V37.4113V37.4162V37.421V37.4258V37.4302V37.4345V37.4388V37.4427V37.4468V37.4508V37.4543V37.4578V37.4613V37.4645V37.4678V37.4707V37.4735V37.4762V37.4788V37.4835V37.4875V37.491V37.494V37.4972V37.4998C27.5 38.8805 26.3808 40 25 40C23.6192 40 22.5 38.8807 22.5 37.5V37.4972V37.494V37.491V37.4875V37.4835V37.4788V37.4762V37.4735V37.4707V37.4678V37.4645V37.4613V37.4578V37.4543V37.4508V37.4468V37.4427V37.4388V37.4345V37.4302V37.4258V37.421V37.4162V37.4113V37.4062V37.401V37.3957V37.3903V37.3848V37.379V37.373V37.367V37.361V37.3548V37.3483V37.3418V37.3352V37.3282V37.3215V37.3145V37.3072V37.3V37.2925V37.285V37.2773V37.2695V37.2615V37.2535V37.2453V37.237V37.2285V37.22V37.2113V37.2025V37.1935V37.1845V37.1753V37.166V37.1565V37.147V37.1373V37.1275V37.1175V37.1075V37.0975V37.087V37.0768V37.0662V37.0555V37.0448V37.034V37.023V37.012V37.0008V36.9893V36.978V36.9663V36.9548V36.943V36.931V36.919V36.9067V36.8945V36.8822V36.8698V36.8573V36.8445V36.8317V36.8188V36.8057V36.7928V36.7795V36.766V36.7527V36.739V36.7255V36.7118V36.6978V36.6838V36.6698V36.6555V36.6413V36.6267V36.6122V36.5977V36.583V36.568V36.5532V36.5382V36.523V36.5078V36.4925V36.477V36.4615V36.4458V36.4302V36.4143V36.3982V36.3823V36.3662V36.35V36.3338V36.3172V36.3008V36.2843V36.2675V36.2505V36.2337V36.2168V36.1998V36.1825V36.1653V36.1478V36.1305V36.1128V36.0953V36.0775V36.0598V36.0418V36.0238V36.0057V35.9875V35.9692V35.9508V35.9325V35.914V35.8953V35.8765V35.8577V35.839V35.82V35.8007V35.7817V35.7625V35.7433V35.7237V35.7043V35.6847V35.6652V35.6455V35.6257V35.6058V35.5858V35.5658V35.5457V35.5255V35.5053V35.4847V35.4645V35.444V35.4232V35.4025V35.3818V35.361V35.3403V35.3193V35.2983V35.277V35.2558V35.2345V35.2132V35.1917V35.1702V35.1488V35.127V35.1053V35.0835V35.0618V35.0397V35.0177V34.9958V34.9738V34.9515V34.9292V34.9067V34.8845V34.862V34.8395V34.8167V34.7943V34.7715V34.7485V34.7257V34.7028V34.6797V34.6567V34.6335V34.6105V34.5872V34.564V34.5405V34.517V34.4935V34.47V34.4465V34.4228V34.399V34.3753V34.3512V34.3275V34.3035V34.2795V34.2552V34.2313V34.207V34.1828V34.1585V34.134V34.1097V34.0853V34.0607V34.036V34.0115V33.9867V33.962V33.9372V33.9125V33.8875V33.8625V33.8375V33.8125V33.7875V33.7622V33.7373V33.712V33.6867V33.6613V33.636V33.6105V33.585V33.5595V33.534V33.5083V33.4827V33.457V33.4313V33.4055V33.3797V33.3538V33.3278V33.302V33.276V33.2497V33.2238V33.1978V33.1715V33.1452V33.119V33.0928V33.0665V33.0402V33.0137V32.9872V32.9608V32.9342V32.9077V32.8812V32.8548V32.828V32.8013V32.7745V32.7477V32.721V32.6942V32.6675V32.6405V32.6138V32.5868V32.5597V32.5327V32.5058V32.4787V32.4515V32.4245V32.3973V32.3703V32.343V32.3158V32.2885V32.2612V32.234V32.2065V32.1793V32.1517V32.1245V32.097V32.0695V32.042V32.0145V31.987V31.9595V31.932V31.9042V31.8768V31.849V31.8215V31.7937V31.766V31.7383V31.7108V31.683V31.655V31.6273V31.5995V31.5718V31.544V31.516V31.4882V31.4602V31.4325V31.4045V31.3765V31.3488V31.3208V31.2928V31.2648V31.2368V31.2087V31.1807V31.1527V31.1247V31.0967V31.0687V31.0407V31.0125V30.9845V30.9565V30.9285V30.9002V30.8722V30.844V30.816V30.7878V30.7598V30.7315V30.7035V30.6752V30.6472V30.619V30.591V30.5627V30.5347V30.5065V30.4783V30.4503V30.422V30.394V30.3658V30.3375V30.3095V30.2812V30.2533V30.225V30.197V30.1688V30.1405V30.1125V30.0845V30.0562V30.0282V30V29.972V29.9438V29.9158V29.8878V29.8595V29.8315V29.8035V29.7755V29.7475V29.7195V29.6912V29.6632V29.6353V29.6073V29.5795V29.5515V29.5235V29.4955V29.4678V29.4398V29.4118V29.384V29.356V29.3283V29.3005V29.2725V29.2447V29.217V29.1893V29.1615V29.1337V29.106V29.0783V29.0508V29.023V28.9952V28.9678V28.9403V28.9125V28.885V28.8575V28.83V28.8025V28.775V28.7475V28.7202V28.6928V28.6655V28.638V28.6107V28.5835V28.5562V28.529V28.5017V28.4745V28.4475V28.4202V28.3932V28.366V28.339V28.312V28.285V28.2582V28.2312V28.2043V28.1775V28.1507V28.124V28.097V28.0705V28.0437V28.017V27.9905V27.9638V27.9373V27.9107V27.8843V27.858V27.8315V27.805V27.7787V27.7525V27.7262V27.7V27.6737V27.6478V27.6217V27.5955V27.5695V27.5435V27.5177V27.4918V27.466V27.4403V27.4145V27.3887V27.363V27.3372V27.3117V27.2863V27.2607V27.2353V27.21V27.1845V27.1593V27.134V27.1087V27.0837V27.0585V27.0335V27.0085V26.9835V26.9585V26.9338V26.909V26.8843V26.8595V26.8348V26.8102V26.7858V26.776V26.766V26.7563V26.7463V26.7365V26.7265V26.7165V26.7065V26.6965V26.6865V26.6765V26.6665V26.6565V26.6465V26.6362V26.6263V26.616V26.6057V26.5957V26.5855V26.5753V26.565V26.5547V26.5445V26.5343V26.524V26.5138V26.5033V26.493V26.4825V26.4722V26.4618V26.4512V26.441V26.4305V26.42V26.4095V26.399V26.3885V26.378V26.3675V26.3568V26.3462V26.3358V26.325V26.3145V26.3037V26.2932V26.2825V26.2718V26.2613V26.2505V26.2397V26.229V26.2183V26.2075V26.1967V26.186V26.1753V26.1642V26.1535V26.1427V26.132V26.121V26.1103V26.0993V26.0885V26.0775V26.0665V26.0558V26.0448V26.0337V26.023V26.012V26.001V25.99V25.979V25.968V25.957V25.946V25.935V25.924V25.913V25.9017V25.8908V25.8797V25.8687V25.8575V25.8465V25.8355V25.8243V25.8133V25.802V25.791V25.7798V25.7687V25.7575V25.7465V25.7352V25.724V25.713V25.7017V25.6905V25.6795V25.6682V25.657V25.6458V25.6347V25.6235V25.6122V25.601V25.5898V25.5785V25.5675V25.5562V25.545V25.5338V25.5225V25.5112V25.5V25.4888V25.4775V25.4662V25.455V25.4437V25.4325V25.4212V25.41V25.3988V25.3875V25.3763V25.365V25.3538V25.3425V25.3312V25.32V25.3088V25.2975V25.2863V25.275V25.2638V25.2522V25.241V25.2297V25.2185V25.2073V25.196V25.1847V25.1735V25.1623V25.151V25.14V25.1287V25.1175V25.1062V25.095V25.0837V25.0725V25.0612V25.05V25.0387V25.0278V25.0165V25.0052V24.994V24.983V24.9718V24.9605V24.9492V24.9382V24.927V24.9158V24.9047V24.8935V24.8825V24.8713V24.8603V24.849V24.838V24.8268V24.8158V24.8047V24.7935V24.7825V24.7715V24.7603V24.7493V24.7383V24.7272V24.7163V24.7052V24.6943V24.6832V24.6723V24.6613V24.6502V24.6392V24.6283V24.6175V24.6065V24.5955V24.5845V24.5737V24.5627V24.552V24.541V24.5303V24.5193V24.5085V24.4977V24.487V24.476V24.4653V24.4545V24.4438V24.433V24.4222V24.4115V24.4007V24.3902V24.3795V24.3688V24.3583V24.3475V24.3368V24.3263V24.3158V24.305V24.2945V24.284V24.2735V24.263V24.2523V24.2418V24.2315V24.221V24.2105V24.2V24.1898V24.1792V24.1687V24.1585V24.1483V24.1377V24.1275V24.1173V24.107V24.0967V24.0865V24.0763V24.066V24.0557V24.0458V24.0355V24.0252V24.0153V24.0053V23.995V23.985V23.975V23.965V23.955V23.945V23.935V23.925V23.9153V23.9053V23.8955V23.8855V23.8757V23.866V23.856V23.8462V23.8365V23.827V23.8173V23.8075V23.7978V23.7882V23.7785V23.769V23.7595V23.75V23.7405V23.731V23.7215V23.712V23.7025V23.6932V23.6838V23.6745V23.6652V23.6558V23.6465V23.6372V23.628V23.619V23.6098V23.6005V23.5915V23.5823V23.5732V23.5643V23.5553V23.5462V23.5373V23.5282V23.5195V23.5105V23.5017V23.4928V23.484V23.4752V23.4665V23.4577V23.4492V23.4405V23.432V23.4233V23.4147V23.4062V23.3978V23.3892V23.3807V23.3722V23.364V23.3555V23.3472V23.339V23.3307V23.3225V23.3142V23.306V23.298V23.2897V23.2817V23.2738V23.2658V23.2577V23.2498V23.2417V23.234V23.226V23.2183V23.2105V23.2028V23.195V23.1873V23.1798V23.172V23.1645V23.157V23.1495V23.142V23.1345V23.127V23.1198V23.1122V23.105V23.0978V23.0905V23.0833V23.0763V23.069V23.062V23.0548V23.0478V23.0408V23.034V23.027V23.0203V23.0133V23.0065V22.9997V22.993V22.9862V22.9798V22.973V22.9665V22.96V22.9535V22.947V22.9408V22.9342V22.928V22.9218V22.9155V22.9093V22.903V22.897V22.8907V22.8848V22.8787V22.8728V22.8667V22.861V22.855V22.8493V22.8435V22.8378V22.8323V22.8265V22.821V22.8152V22.8098V22.8043V22.799V22.7935V22.7882V22.783V22.7778V22.7725V22.7673V22.7623V22.757V22.752V22.747V22.7423V22.7373V22.7325V22.7275V22.7227V22.7183V22.7135V22.7087V22.7043V22.6997V22.6953V22.6908V22.6865V22.682V22.6777V22.6735V22.6693V22.6653V22.661V22.657V22.653V22.649V22.645V22.6413V22.6375V22.6338V22.63V22.6262V22.6225V22.619V22.6155V22.612V22.6085V22.6052V22.602V22.5985V22.5955V22.5922V22.589V22.586V22.583V22.58V22.577V22.5743V22.5715V22.5688V22.566V22.5632V22.5607V22.558V22.5555V22.5508V22.5463V22.5417V22.5375V22.5335V22.5298V22.5262V22.5228V22.5198V22.5167V22.513V22.5105V22.5075V22.505V22.502C22.5 21.1213 23.6192 20 25 20Z" fill="#6C9C3C"/>
</svg>
