<svg width="25" height="25" viewBox="0 0 25 25" fill="none" xmlns="http://www.w3.org/2000/svg">
<g clip-path="url(#clip0_12_127)">
<path fill-rule="evenodd" clip-rule="evenodd" d="M7.5653 4.01192C8.03575 1.67917 10.1011 0 12.4999 0C14.8988 0 16.9642 1.67917 17.4345 4.01192L17.9967 6.79907C18.2905 8.2565 18.8695 9.6427 19.7008 10.8794L20.6682 12.3184C21.2718 13.2163 21.6665 14.2308 21.8298 15.2887C22.7912 15.3694 23.6338 15.9808 23.9967 16.8805L24.8162 18.9123C25.2293 19.9367 24.9305 21.1083 24.0758 21.8145L20.9357 24.4097C20.0213 25.1653 18.7032 25.1988 17.751 24.4907L16.4865 23.5502C16.4698 23.5378 16.4533 23.5252 16.4369 23.5123C15.8162 23.6792 15.1632 23.7683 14.4893 23.7683H10.5106C9.83668 23.7683 9.18372 23.6793 8.56303 23.5123C8.5467 23.5252 8.53018 23.5378 8.51347 23.5502L7.24903 24.4907C6.29685 25.1988 4.97875 25.1653 4.06438 24.4097L0.9241 21.8145C0.0695294 21.1083 -0.229333 19.9367 0.183802 18.9123L1.00338 16.8805C1.36619 15.9809 2.20878 15.3695 3.16997 15.2887C3.33333 14.2308 3.728 13.2163 4.33162 12.3184L5.29897 10.8794C6.1303 9.6427 6.70928 8.2565 7.00322 6.79907L7.5653 4.01192ZM18.0742 15.7931C17.7242 16.0549 17.4403 16.4064 17.2602 16.823L15.98 19.7855C15.3338 20.1632 14.5868 20.3728 13.8078 20.3728H11.1922C10.4132 20.3728 9.66625 20.1632 9.02005 19.7857L7.73977 16.823C7.55968 16.4063 7.27587 16.0548 6.92577 15.793C6.96868 15.2559 7.11483 14.725 7.36422 14.2304L9.4613 10.071L9.47388 10.0834C11.1453 11.741 13.8551 11.741 15.5264 10.0834L15.5387 10.0712L17.6357 14.2304C17.8852 14.7251 18.0312 15.2559 18.0742 15.7931ZM15.0678 7.1151V5.0932H13.3559V6.42855C13.7192 6.50205 14.0751 6.62285 14.4141 6.79097L15.0678 7.1151ZM11.644 6.42863V5.0932H9.93205V7.11532L10.5862 6.79097C10.9251 6.62292 11.2808 6.50215 11.644 6.42863ZM3.38758 16.9773C3.03758 16.9773 2.72283 17.1887 2.59285 17.511L1.77328 19.5428C1.63557 19.8843 1.73518 20.2748 2.02005 20.5103L5.16033 23.1055C5.46512 23.3573 5.90448 23.3685 6.22188 23.1325L7.48632 22.192C7.80217 21.9572 7.91502 21.5383 7.7595 21.1785L6.16627 17.4918C6.0314 17.1797 5.72193 16.9773 5.37952 16.9773H3.38758ZM22.4072 17.511C22.2772 17.1887 21.9625 16.9773 21.6123 16.9773H19.6205C19.278 16.9773 18.9687 17.1797 18.8337 17.4918L17.2405 21.1785C17.085 21.5383 17.1978 21.9572 17.5137 22.192L18.7782 23.1325C19.0955 23.3685 19.5348 23.3573 19.8397 23.1055L22.98 20.5103C23.2648 20.2748 23.3645 19.8843 23.2267 19.5428L22.4072 17.511ZM11.3518 8.30947C12.0747 7.951 12.9256 7.951 13.6485 8.30947L14.479 8.72125L14.3159 8.88297C13.3131 9.87748 11.6872 9.87748 10.6844 8.88297L10.5213 8.72125L11.3518 8.30947Z" fill="white"/>
</g>
<defs>
<clipPath id="clip0_12_127">
<path d="M0 8C0 3.58172 3.58172 0 8 0H17C21.4183 0 25 3.58172 25 8V25H0V8Z" fill="white"/>
</clipPath>
</defs>
</svg>
