<svg width="25" height="25" viewBox="0 0 25 25" fill="none" xmlns="http://www.w3.org/2000/svg">
<g clip-path="url(#clip0_12_107)">
<path d="M17.5831 11.7193L18.079 11.218C18.079 11.218 18.8412 10.5635 19.7102 10.8602C21.2231 11.3767 22.971 10.8175 24.1833 9.60369C24.5281 9.25882 24.947 8.56687 24.947 8.56687C24.995 8.50125 25.0118 8.4181 24.992 8.33875L24.8982 7.95271C24.8806 7.88025 24.8341 7.81844 24.77 7.7803C24.7059 7.7429 24.6288 7.73299 24.5579 7.75359L21.5801 8.58216C21.4695 8.61268 21.3512 8.57147 21.2841 8.47918L19.9162 6.59471C19.8742 6.53748 19.8567 6.46575 19.8666 6.39632L20.142 4.39436C20.1565 4.28528 20.2343 4.19676 20.3404 4.16702L23.4852 3.29192C23.6271 3.25223 23.7133 3.10574 23.6782 2.96155L23.5539 2.45574C23.5371 2.38401 23.4913 2.32298 23.4287 2.28484C23.4287 2.28484 23.1823 2.12156 23.003 2.02928C21.217 1.10686 18.9678 1.393 17.4702 2.89139C16.3639 3.99764 15.9306 5.51287 16.1335 6.95174C16.2899 8.05799 16.2167 8.64622 15.7391 9.1513C15.6956 9.19632 15.5583 9.33362 15.3462 9.54192L17.5831 11.7193Z" fill="white"/>
<path d="M10.3214 14.4247C6.98361 17.6588 3.34284 21.1775 3.34284 21.1775C3.21847 21.2965 3.14752 21.4605 3.14523 21.6322C3.14293 21.8031 3.21085 21.9687 3.33141 22.09L4.89088 23.6494C5.01295 23.7707 5.17775 23.8379 5.34943 23.8356C5.52111 23.8341 5.68434 23.7624 5.8026 23.6388L12.6057 16.7563L10.3214 14.4247Z" fill="white"/>
<path d="M24.4839 22.0397C24.6052 21.9184 24.6723 21.7536 24.6701 21.5819C24.6686 21.4102 24.5969 21.247 24.4733 21.128L11.1043 8.11755L8.95813 10.2645L22.012 23.5885C22.131 23.7128 22.2943 23.7838 22.4659 23.7861C22.6376 23.7884 22.8024 23.7204 22.9245 23.5991L24.4839 22.0397Z" fill="white"/>
<path d="M12.4117 1.59285C10.8019 0.96497 8.19877 0.874149 6.6912 2.38099C5.50404 3.56814 3.76761 5.30535 3.76761 5.30535C3.14886 5.92332 3.72338 6.53675 3.26635 6.993C2.80936 7.44998 2.07919 6.993 1.66801 7.40423L0.160437 8.91248C-0.0539673 9.1261 -0.0539673 9.474 0.160437 9.68841L2.26083 11.7888C2.47523 12.0032 2.82313 12.0032 3.03749 11.7888L4.54506 10.2812C4.95707 9.87 4.49926 9.13987 4.95707 8.68362C5.57274 8.06717 6.24491 8.17171 6.63324 8.55926L7.40917 9.33519L8.24994 9.55643L10.3961 7.41028L10.1489 6.59544C9.46449 5.91033 9.36683 5.11761 9.79564 4.68885C10.4594 4.02508 11.5557 3.06609 12.5827 2.65486C13.2372 2.39319 13.0396 1.74163 12.4117 1.59285ZM9.50033 5.05276C9.49725 5.05506 9.78641 4.69725 9.79178 4.69266L9.50033 5.05276Z" fill="white"/>
</g>
<defs>
<clipPath id="clip0_12_107">
<path d="M0 8C0 3.58172 3.58172 0 8 0H17C21.4183 0 25 3.58172 25 8V25H0V8Z" fill="white"/>
</clipPath>
</defs>
</svg>
