<svg width="30" height="30" viewBox="0 0 30 30" fill="none" xmlns="http://www.w3.org/2000/svg">
<path d="M21.48 12.27H8.52C7.59 12.27 6.81 11.52 6.81 10.56V5.42998C6.81 5.18998 7.02 4.97998 7.26 4.97998H10.53C10.77 4.97998 10.98 5.18998 10.98 5.42998V7.40998H12.9V5.42998C12.9 5.18998 13.11 4.97998 13.35 4.97998H16.62C16.86 4.97998 17.07 5.18998 17.07 5.42998V7.40998H18.99V5.42998C18.99 5.18998 19.2 4.97998 19.44 4.97998H22.71C22.95 4.97998 23.16 5.18998 23.16 5.42998V9.59998C23.16 9.62998 23.16 9.65998 23.16 9.65998V10.56C23.16 11.52 22.41 12.27 21.48 12.27ZM7.74 5.87998V10.56C7.74 11.01 8.1 11.37 8.55 11.37H21.48C21.93 11.37 22.29 11.01 22.29 10.56V9.59998C22.29 9.56998 22.29 9.53998 22.29 9.53998V5.87998H19.92V7.85998C19.92 8.09998 19.71 8.30998 19.47 8.30998H16.65C16.41 8.30998 16.2 8.09998 16.2 7.85998V5.87998H13.83V7.85998C13.83 8.09998 13.62 8.30998 13.38 8.30998H10.56C10.32 8.30998 10.11 8.09998 10.11 7.85998V5.87998H7.74ZM19.23 19.38H10.77C10.53 19.38 10.32 19.17 10.32 18.93V11.82C10.32 11.58 10.53 11.37 10.77 11.37H19.23C19.47 11.37 19.68 11.58 19.68 11.82V18.9C19.68 19.17 19.47 19.38 19.23 19.38ZM11.22 18.48H18.78V12.27H11.22V18.48ZM21 22.05H9.03C8.79 22.05 8.58 21.84 8.58 21.6V20.28C8.58 19.29 9.39 18.48 10.38 18.48H19.62C20.61 18.48 21.42 19.29 21.42 20.28V21.6C21.45 21.87 21.24 22.05 21 22.05ZM9.48 21.15H20.55V20.28C20.55 19.77 20.13 19.38 19.65 19.38H10.38C9.87 19.38 9.48 19.8 9.48 20.28V21.15ZM22.23 25.77H7.56C7.32 25.77 7.11 25.56 7.11 25.32V23.16C7.11 22.05 8.01 21.15 9.12 21.15H20.7C21.81 21.15 22.71 22.05 22.71 23.16V25.32C22.68 25.56 22.47 25.77 22.23 25.77ZM8.01 24.87H21.78V23.16C21.78 22.56 21.3 22.05 20.67 22.05H9.09C8.49 22.05 7.98 22.53 7.98 23.16V24.87H8.01ZM25.89 27.51H4.11C3.87 27.51 3.66 27.3 3.66 27.06V25.29C3.66 25.05 3.87 24.84 4.11 24.84H25.89C26.13 24.84 26.34 25.05 26.34 25.29V27.06C26.34 27.33 26.13 27.51 25.89 27.51ZM4.56 26.61H25.44V25.74H4.56V26.61ZM17.4 16.2V14.01C17.4 13.77 17.19 13.56 16.95 13.56C16.71 13.56 16.5 13.77 16.5 14.04V16.2C16.5 16.44 16.71 16.65 16.95 16.65C17.19 16.65 17.4 16.44 17.4 16.2Z" fill="#6c9c3c" stroke="#6c9c3c"/>
</svg>
